<mxfile host="app.diagrams.net" modified="2024-07-04T13:13:29.133Z" agent="Mozilla/5.0 (Windows NT 10.0; Win64; x64) AppleWebKit/537.36 (KHTML, like Gecko) Chrome/126.0.0.0 Safari/537.36" etag="K269Zm8XQZQZM--HQAnc" version="24.6.4" type="device">
  <diagram name="‫עמוד-1‬" id="71WqHsuj-I6IQXrGTP35">
    <mxGraphModel dx="748" dy="423" grid="1" gridSize="10" guides="1" tooltips="1" connect="1" arrows="1" fold="1" page="1" pageScale="1" pageWidth="827" pageHeight="1169" math="0" shadow="0">
      <root>
        <mxCell id="0" />
        <mxCell id="1" parent="0" />
        <mxCell id="Wfr15aVXj3d-rfrudnue-1" value="start" style="rounded=1;whiteSpace=wrap;html=1;" parent="1" vertex="1">
          <mxGeometry x="380" y="40" width="120" height="60" as="geometry" />
        </mxCell>
        <mxCell id="Wfr15aVXj3d-rfrudnue-31" value="End" style="rounded=1;whiteSpace=wrap;html=1;" parent="1" vertex="1">
          <mxGeometry x="380" y="650" width="120" height="60" as="geometry" />
        </mxCell>
        <mxCell id="jxmFiIxOb6Or36o9aFA0-7" value="" style="endArrow=classic;html=1;rounded=0;entryX=0.5;entryY=0;entryDx=0;entryDy=0;exitX=0.5;exitY=1;exitDx=0;exitDy=0;" edge="1" parent="1" source="Wfr15aVXj3d-rfrudnue-1" target="jxmFiIxOb6Or36o9aFA0-6">
          <mxGeometry width="50" height="50" relative="1" as="geometry">
            <mxPoint x="440" y="150" as="sourcePoint" />
            <mxPoint x="440" y="270" as="targetPoint" />
            <Array as="points" />
          </mxGeometry>
        </mxCell>
        <mxCell id="jxmFiIxOb6Or36o9aFA0-6" value="x (int) = 777" style="rounded=0;whiteSpace=wrap;html=1;strokeColor=default;align=center;verticalAlign=middle;fontFamily=Helvetica;fontSize=12;fontColor=default;resizable=1;fillColor=default;" vertex="1" parent="1">
          <mxGeometry x="380" y="180" width="120" height="60" as="geometry" />
        </mxCell>
        <mxCell id="jxmFiIxOb6Or36o9aFA0-9" value="y (int) = 888" style="rounded=0;whiteSpace=wrap;html=1;strokeColor=default;align=center;verticalAlign=middle;fontFamily=Helvetica;fontSize=12;fontColor=default;resizable=1;fillColor=default;" vertex="1" parent="1">
          <mxGeometry x="380" y="270" width="120" height="60" as="geometry" />
        </mxCell>
        <mxCell id="jxmFiIxOb6Or36o9aFA0-10" value="z (int) = 999" style="rounded=0;whiteSpace=wrap;html=1;strokeColor=default;align=center;verticalAlign=middle;fontFamily=Helvetica;fontSize=12;fontColor=default;resizable=1;fillColor=default;" vertex="1" parent="1">
          <mxGeometry x="380" y="360" width="120" height="60" as="geometry" />
        </mxCell>
        <mxCell id="jxmFiIxOb6Or36o9aFA0-11" value="" style="endArrow=classic;html=1;rounded=0;fontFamily=Helvetica;fontSize=12;fontColor=default;resizable=1;exitX=0.5;exitY=1;exitDx=0;exitDy=0;" edge="1" parent="1" source="jxmFiIxOb6Or36o9aFA0-10" target="Wfr15aVXj3d-rfrudnue-31">
          <mxGeometry width="50" height="50" relative="1" as="geometry">
            <mxPoint x="480" y="540" as="sourcePoint" />
            <mxPoint x="530" y="490" as="targetPoint" />
            <Array as="points">
              <mxPoint x="440" y="460" />
            </Array>
          </mxGeometry>
        </mxCell>
        <mxCell id="jxmFiIxOb6Or36o9aFA0-12" value="" style="endArrow=classic;html=1;rounded=0;fontFamily=Helvetica;fontSize=12;fontColor=default;resizable=1;exitX=0.5;exitY=1;exitDx=0;exitDy=0;" edge="1" parent="1" source="jxmFiIxOb6Or36o9aFA0-9">
          <mxGeometry width="50" height="50" relative="1" as="geometry">
            <mxPoint x="450" y="430" as="sourcePoint" />
            <mxPoint x="440" y="360" as="targetPoint" />
            <Array as="points" />
          </mxGeometry>
        </mxCell>
        <mxCell id="jxmFiIxOb6Or36o9aFA0-13" value="" style="endArrow=classic;html=1;rounded=0;fontFamily=Helvetica;fontSize=12;fontColor=default;resizable=1;exitX=0.5;exitY=1;exitDx=0;exitDy=0;entryX=0.5;entryY=0;entryDx=0;entryDy=0;" edge="1" parent="1" source="jxmFiIxOb6Or36o9aFA0-6" target="jxmFiIxOb6Or36o9aFA0-9">
          <mxGeometry width="50" height="50" relative="1" as="geometry">
            <mxPoint x="450" y="340" as="sourcePoint" />
            <mxPoint x="450" y="370" as="targetPoint" />
            <Array as="points" />
          </mxGeometry>
        </mxCell>
        <mxCell id="jxmFiIxOb6Or36o9aFA0-14" value="result = x * y + z" style="shape=document;whiteSpace=wrap;html=1;boundedLbl=1;strokeColor=default;align=center;verticalAlign=middle;fontFamily=Helvetica;fontSize=12;fontColor=default;resizable=1;fillColor=default;" vertex="1" parent="1">
          <mxGeometry x="380" y="530" width="120" height="80" as="geometry" />
        </mxCell>
        <mxCell id="jxmFiIxOb6Or36o9aFA0-15" value="result (int) = x * y =z" style="rounded=0;whiteSpace=wrap;html=1;strokeColor=default;align=center;verticalAlign=middle;fontFamily=Helvetica;fontSize=12;fontColor=default;resizable=1;fillColor=default;" vertex="1" parent="1">
          <mxGeometry x="380" y="450" width="120" height="60" as="geometry" />
        </mxCell>
      </root>
    </mxGraphModel>
  </diagram>
</mxfile>
